<svg width="57" height="56" viewBox="0 0 57 56" fill="none" xmlns="http://www.w3.org/2000/svg">
<g clip-path="url(#clip0_3_1033)">
<path d="M14.5547 12.7969C6.49378 16.5922 0.806277 19.3375 0.696902 19.4688C0.434402 19.7969 0.445339 20.1688 0.751589 20.4969C0.893777 20.6609 2.78596 21.6125 5.53128 22.9031L10.0703 25.025L10.125 30.0453C10.1797 34.9563 10.1797 35.0656 10.4313 35.6453C10.9016 36.7609 11.7657 37.8656 12.9688 38.8719C15.8563 41.3109 19.9032 42.9844 24.6719 43.7172C26.236 43.9578 30.4469 43.9906 31.9453 43.7719C34.986 43.3344 38.0266 42.4484 40.0938 41.3984C40.3891 41.2453 40.6625 41.125 40.6953 41.125C40.7281 41.125 40.75 41.5625 40.75 42.1094C40.75 42.9297 40.7172 43.0938 40.575 43.0938C40.4875 43.0938 40.1485 43.3562 39.8422 43.6734C38.8141 44.6906 38.7157 45.8719 39.5578 47.0859L39.8531 47.5234L39.6563 49.8203C39.3828 52.8281 39.3828 52.7844 39.711 53.1016C39.9625 53.3641 40.0172 53.375 41.625 53.375C43.2328 53.375 43.2875 53.3641 43.5391 53.1016C43.8672 52.7844 43.8672 52.8281 43.5938 49.8203L43.3969 47.5234L43.6922 47.0859C44.5344 45.8719 44.436 44.6906 43.4078 43.6734C43.1016 43.3562 42.7625 43.0938 42.675 43.0938C42.5219 43.0938 42.5 42.875 42.5 41.5734V40.0641L43.2657 39.4953C44.8188 38.3359 46.0219 36.9359 46.5688 35.6344C46.8203 35.0656 46.8203 34.9453 46.875 30.0453L46.9297 25.0359L51.4688 22.9031C54.3016 21.5797 56.0953 20.6719 56.2594 20.4969C56.5657 20.1469 56.5657 19.775 56.2594 19.4359C55.9532 19.1078 28.85 6.34375 28.4782 6.35469C28.336 6.35469 22.0797 9.25312 14.5547 12.7969ZM41.1328 14.1094C47.936 17.3141 53.5032 19.9391 53.525 19.9609C53.5688 19.9938 42.1172 25.375 41.975 25.375C41.8985 25.375 38.8907 23.8984 35.2813 22.0938C31.6719 20.2891 28.5985 18.8125 28.4453 18.8125C27.8547 18.8125 27.4391 19.5781 27.7344 20.1359C27.811 20.2672 30.2063 21.525 33.8922 23.3625C39.5578 26.2063 39.9078 26.3922 39.6563 26.5234C38.65 27.0375 28.6094 31.7188 28.511 31.7188C28.4016 31.7188 10.0375 23.1109 4.62346 20.5187L3.45315 19.9609L15.8891 14.0875C22.736 10.8609 28.4344 8.23594 28.5547 8.24688C28.675 8.26875 34.3407 10.9047 41.1328 14.1094ZM20.1985 29.7938C24.6172 31.8719 28.3578 33.5781 28.5 33.5781C28.6422 33.5781 31.4313 32.3203 34.7016 30.7891C37.961 29.2578 40.6625 28 40.6953 28C40.7281 28 40.7391 30.4937 40.7281 33.5453L40.6953 39.0906L39.6782 39.6156C37.4797 40.7203 34.8766 41.5406 32.2188 41.9672C30.4578 42.2406 26.5422 42.2406 24.7813 41.9672C23.086 41.6938 20.8657 41.1141 19.4985 40.5781C16.0313 39.2219 13.1547 37.1219 12.1922 35.2516L11.9297 34.7266L11.8969 30.3078C11.875 26.7531 11.8969 25.9109 12.0063 25.9547C12.0828 25.9766 15.7688 27.7047 20.1985 29.7938ZM45.125 30.1766C45.125 34.7484 45.125 34.7703 44.5235 35.7109C44.1735 36.2578 42.7625 37.7344 42.5875 37.7344C42.5438 37.7344 42.5 35.35 42.5 32.4297V27.1141L43.736 26.5234C44.4032 26.2063 44.9938 25.9328 45.0485 25.9328C45.0922 25.9219 45.125 27.8359 45.125 30.1766ZM42.2266 44.8984C42.7735 45.4344 42.3907 46.375 41.625 46.375C41.1766 46.375 40.75 45.9484 40.75 45.5C40.75 45.0516 41.1766 44.625 41.625 44.625C41.8328 44.625 42.0625 44.7234 42.2266 44.8984ZM41.8219 49.6344C42.0078 51.7344 42.0078 51.625 41.625 51.625C41.3625 51.625 41.2969 51.5813 41.2969 51.3844C41.2969 50.7281 41.5594 48.125 41.625 48.125C41.6688 48.125 41.7563 48.8031 41.8219 49.6344Z" fill="#41332A"/>
</g>
<defs>
<clipPath id="clip0_3_1033">
<rect width="56" height="56" fill="white" transform="translate(0.5)"/>
</clipPath>
</defs>
</svg>
