<svg width="57" height="56" viewBox="0 0 57 56" fill="none" xmlns="http://www.w3.org/2000/svg">
<g clip-path="url(#clip0_3_1065)">
<path d="M20.0781 4.91094C19.2906 5.1625 18.7109 5.53438 18.0875 6.20156C17.125 7.24063 16.7968 8.29063 16.7968 10.4125V11.6922L10.3765 11.725L3.94528 11.7578L3.19059 12.1297C2.3484 12.5344 1.57184 13.2453 1.1234 14.0109C0.467155 15.1266 0.48903 14.3172 0.521842 31.7844L0.554655 47.7422L0.79528 48.3219C1.32028 49.6125 2.38122 50.6188 3.70466 51.0781C4.31716 51.2969 4.61247 51.2969 28.4781 51.2969C55.3187 51.2969 53.1203 51.3625 54.389 50.5422C55.1437 50.05 55.8547 49.1969 56.2047 48.3219L56.4453 47.7422L56.4781 31.7844C56.5109 14.3172 56.5328 15.1266 55.8765 14.0109C55.439 13.2563 54.6625 12.5453 53.8203 12.1297L53.0547 11.7578L46.6343 11.725L40.2031 11.6922V10.4125C40.2031 8.91407 40.0062 7.86406 39.5797 7.09844C39.164 6.32188 38.0703 5.32656 37.2828 5.00938L36.6484 4.75782L28.664 4.73594C21.2703 4.71407 20.6359 4.725 20.0781 4.91094ZM36.4297 7.20781C36.6703 7.31719 36.9984 7.54688 37.1625 7.72188C37.6875 8.29063 37.7968 8.71719 37.7968 10.2813V11.7031H28.5H19.2031V10.2266C19.2031 8.59688 19.3015 8.225 19.9359 7.63438C20.614 6.98906 20.3297 7.01094 28.5 7.01094C35.5656 7 36.014 7.01094 36.4297 7.20781ZM52.9015 14.3063C53.3281 14.525 53.5797 14.7547 53.8203 15.1484L54.1484 15.6734V21V26.3266L53.8203 26.8516C53.5797 27.2453 53.3281 27.475 52.9015 27.6938L52.3218 28H42.7625H33.2031V27.3984C33.2031 27.0594 33.1375 26.6219 33.05 26.425C32.7437 25.6922 32.8093 25.7031 28.5 25.7031C24.1906 25.7031 24.2562 25.6922 23.95 26.425C23.8625 26.6219 23.7968 27.0594 23.7968 27.3984V28H14.2375H4.67809L4.09841 27.6938C3.67184 27.475 3.42028 27.2453 3.17965 26.8516L2.85153 26.3266V21V15.6734L3.17965 15.1484C3.42028 14.7547 3.67184 14.525 4.09841 14.3063L4.67809 14H28.5H52.3218L52.9015 14.3063ZM30.7968 30.3516V32.7031H28.5H26.2031V30.3516V28H28.5H30.7968V30.3516ZM3.81403 30.0891C4.42653 30.2859 4.97341 30.2969 14.1281 30.2969H23.7968V32.1016C23.7968 34.1359 23.8953 34.5516 24.4422 34.825C24.9343 35.0875 32.0656 35.0875 32.5578 34.825C33.1047 34.5516 33.2031 34.1359 33.2031 32.1016V30.2969H42.8718C52.0265 30.2969 52.5734 30.2859 53.1859 30.0891C53.5359 29.9797 53.9078 29.8484 54.0172 29.8047C54.2031 29.7281 54.2031 30.1219 54.1812 38.5219L54.1484 47.3266L53.8203 47.8516C53.5797 48.2453 53.3281 48.475 52.9015 48.6938L52.3218 49H28.5H4.67809L4.09841 48.6938C3.67184 48.475 3.42028 48.2453 3.17965 47.8516L2.85153 47.3266L2.81872 38.5219C2.79684 30.1219 2.79684 29.7281 2.98278 29.8047C3.09215 29.8484 3.46403 29.9797 3.81403 30.0891Z" fill="#41332A"/>
</g>
<defs>
<clipPath id="clip0_3_1065">
<rect width="56" height="56" fill="white" transform="translate(0.5)"/>
</clipPath>
</defs>
</svg>
