<svg width="24" height="24" viewBox="0 0 24 24" fill="none" xmlns="http://www.w3.org/2000/svg">
<path d="M19.9999 12.05C19.9812 10.5255 19.5272 9.03809 18.6914 7.76295C17.8556 6.48781 16.6729 5.47804 15.2825 4.85257C13.892 4.2271 12.3518 4.01198 10.8432 4.23253C9.33461 4.45309 7.92045 5.10013 6.76728 6.09748C5.6141 7.09482 4.76993 8.40092 4.33418 9.86195C3.89844 11.323 3.88926 12.8781 4.30774 14.3442C4.72622 15.8103 5.55492 17.1262 6.69625 18.1371C7.83757 19.148 9.244 19.8117 10.7499 20.05V14.38H8.74989V12.05H10.7499V10.28C10.7036 9.86846 10.7482 9.45175 10.8806 9.05931C11.013 8.66687 11.2299 8.30827 11.516 8.00882C11.8021 7.70936 12.1504 7.47635 12.5364 7.32624C12.9224 7.17612 13.3367 7.11255 13.7499 7.14003C14.3497 7.14824 14.9481 7.20173 15.5399 7.30003V9.30003H14.5399C14.3675 9.27828 14.1923 9.29556 14.0275 9.35059C13.8626 9.40562 13.7122 9.49699 13.5874 9.61795C13.4626 9.73891 13.3666 9.88637 13.3065 10.0494C13.2463 10.2125 13.2236 10.387 13.2399 10.56V12.07H15.4599L15.0999 14.4H13.2499V20C15.1398 19.7011 16.86 18.7347 18.0984 17.2761C19.3368 15.8175 20.0114 13.9634 19.9999 12.05Z" fill="white"/>
</svg>
