<svg width="24" height="24" viewBox="0 0 24 24" fill="none" xmlns="http://www.w3.org/2000/svg">
<g clip-path="url(#clip0_3_1068)">
<path d="M19.3537 5.99701V5.99776C19.3537 6.74326 18.7492 7.34701 18.0044 7.34701C17.2597 7.34701 16.6552 6.74251 16.6552 5.99776C16.6552 5.25226 17.2597 4.64851 18.0044 4.64851C18.7492 4.64926 19.3529 5.25226 19.3537 5.99701ZM11.9999 15.7493C9.92918 15.7493 8.25068 14.0708 8.25068 12C8.25068 9.92926 9.92918 8.25076 11.9999 8.25076C14.0707 8.25076 15.7492 9.92926 15.7492 12C15.7492 14.07 14.0714 15.7485 12.0014 15.7485H12.0007L11.9999 15.7493ZM11.9999 6.22501C8.81018 6.22501 6.22493 8.81101 6.22493 12C6.22493 15.189 8.81093 17.775 11.9999 17.775C15.1897 17.775 17.7749 15.189 17.7749 12C17.7749 12 17.7749 12 17.7749 11.9993C17.7749 8.81026 15.1897 6.22426 11.9999 6.22426C11.9999 6.22426 11.9999 6.22426 11.9992 6.22426L11.9999 6.22501ZM11.9999 2.77801C15.0022 2.77801 15.3599 2.79301 16.5457 2.84476C17.2979 2.85376 18.0134 2.99626 18.6757 3.24826L18.6329 3.23401C19.6184 3.61801 20.3834 4.38301 20.7592 5.34301L20.7682 5.36851C21.0052 5.98801 21.1462 6.70426 21.1552 7.45201V7.45576C21.2084 8.64226 21.2204 8.99851 21.2204 12.0015C21.2204 15.0045 21.2062 15.3615 21.1514 16.5473C21.1372 17.3003 20.9939 18.0158 20.7427 18.678L20.7569 18.6345C20.5634 19.1415 20.2769 19.5735 19.9147 19.929L19.9139 19.9298C19.5592 20.2928 19.1272 20.5793 18.6449 20.7615L18.6209 20.7698C17.9992 21.0068 17.2807 21.1478 16.5299 21.1568H16.5262C15.3322 21.21 14.9804 21.222 11.9722 21.222C8.96243 21.222 8.61143 21.2078 7.41818 21.153C6.66218 21.1388 5.94368 20.9955 5.27843 20.7443L5.32268 20.7585C4.81568 20.568 4.38368 20.2808 4.03118 19.917L4.03043 19.9163C3.66368 19.5638 3.37568 19.131 3.19493 18.6465L3.18743 18.6233C2.95118 18.0023 2.80793 17.2845 2.79368 16.5345V16.5285C2.75168 15.3473 2.73668 14.9828 2.73668 11.9888C2.73668 8.99326 2.75168 8.62801 2.79368 7.43251C2.80793 6.67726 2.95043 5.95951 3.20168 5.29501L3.18743 5.33926C3.37268 4.83001 3.66143 4.39651 4.02968 4.04626L4.03118 4.04476C4.38218 3.67576 4.81493 3.38851 5.30018 3.21076L5.32343 3.20326C5.94068 2.96476 6.65393 2.82151 7.39943 2.80876H7.40468C8.59943 2.76676 8.95118 2.75251 11.9587 2.75251L11.9999 2.77801ZM11.9999 0.753006C8.94443 0.753006 8.56343 0.767256 7.36343 0.820506C6.37718 0.841506 5.44193 1.03201 4.57643 1.36276L4.63343 1.34401C3.85343 1.64176 3.18893 2.08351 2.64143 2.64001L2.64068 2.64076C2.08193 3.18826 1.64093 3.85351 1.35593 4.59601L1.34318 4.63351C1.03118 5.44201 0.84068 6.37801 0.82043 7.35451V7.36351C0.76418 8.56351 0.75293 8.94451 0.75293 12C0.75293 15.0555 0.76718 15.4365 0.82043 16.6365C0.84143 17.6228 1.03193 18.558 1.36268 19.4235L1.34393 19.3665C1.94093 20.8823 3.11768 22.059 4.59443 22.6425L4.63343 22.656C5.44193 22.9673 6.37793 23.1578 7.35443 23.1788H7.36343C8.56343 23.235 8.94443 23.2463 11.9999 23.2463C15.0554 23.2463 15.4364 23.232 16.6364 23.1788C17.6227 23.157 18.5579 22.9673 19.4234 22.6365L19.3664 22.656C20.8822 22.059 22.0589 20.8823 22.6424 19.4055L22.6559 19.3665C22.9679 18.558 23.1577 17.622 23.1787 16.6455V16.6365C23.2349 15.4365 23.2462 15.0555 23.2462 12C23.2462 8.94451 23.2319 8.56351 23.1787 7.36351C23.1569 6.37726 22.9672 5.44201 22.6364 4.57651L22.6559 4.63351C22.3574 3.85351 21.9164 3.18901 21.3592 2.64151L21.3584 2.64076C20.8109 2.08201 20.1457 1.64101 19.4032 1.35601L19.3657 1.34326C18.5572 1.03126 17.6212 0.840756 16.6447 0.820506H16.6357C15.4357 0.764256 15.0547 0.753006 11.9992 0.753006H11.9999Z" fill="white"/>
</g>
<defs>
<clipPath id="clip0_3_1068">
<rect width="24" height="24" fill="white"/>
</clipPath>
</defs>
</svg>
