<svg width="16" height="16" viewBox="0 0 16 16" fill="none" xmlns="http://www.w3.org/2000/svg">
<path d="M14.72 -2.97992e-05H1.37C1.19793 -0.0080898 1.02595 0.0178604 0.86392 0.0763505C0.70189 0.13484 0.55299 0.22471 0.42573 0.34081C0.29848 0.45692 0.19537 0.59699 0.12232 0.75299C0.0492702 0.909 0.0077 1.07788 0 1.24997V14.63C0.01008 14.9901 0.15766 15.3328 0.41243 15.5875C0.6672 15.8423 1.00984 15.9899 1.37 16H14.72C15.0701 15.9844 15.4002 15.8322 15.6395 15.5761C15.8788 15.32 16.0082 14.9804 16 14.63V1.24997C16.0029 1.08247 15.9715 0.91616 15.9078 0.76122C15.8441 0.60629 15.7494 0.466 15.6295 0.34895C15.5097 0.23191 15.3672 0.14059 15.2108 0.0805805C15.0544 0.0205705 14.8874 -0.0068598 14.72 -2.97992e-05ZM5 13.34H2.67V6.21H5V13.34ZM3.89 5.12997C3.72741 5.13564 3.5654 5.10762 3.41416 5.04768C3.26291 4.98774 3.12569 4.89717 3.01113 4.78166C2.89656 4.66615 2.80711 4.5282 2.74841 4.37647C2.6897 4.22474 2.66301 4.06251 2.67 3.89997C2.66281 3.73567 2.69004 3.57169 2.74995 3.41854C2.80986 3.26538 2.90112 3.12644 3.01787 3.01063C3.13463 2.89481 3.2743 2.80468 3.42793 2.74602C3.58157 2.68735 3.74577 2.66145 3.91 2.66997C4.07259 2.66431 4.2346 2.69232 4.38584 2.75226C4.53709 2.8122 4.67431 2.90277 4.78887 3.01828C4.90344 3.13379 4.99289 3.27174 5.05159 3.42347C5.1103 3.5752 5.13699 3.73743 5.13 3.89997C5.13719 4.06427 5.10996 4.22825 5.05005 4.3814C4.99014 4.53456 4.89888 4.6735 4.78213 4.78931C4.66537 4.90513 4.5257 4.99526 4.37207 5.05392C4.21843 5.11259 4.05423 5.13849 3.89 5.12997ZM13.34 13.34H11V9.44C11 8.51 10.67 7.87 9.84 7.87C9.5822 7.8722 9.3313 7.9541 9.1219 8.1045C8.9124 8.2549 8.7546 8.4664 8.67 8.71C8.605 8.8926 8.5778 9.0865 8.59 9.28V13.34H6.29V6.21H8.59V7.21C8.7945 6.8343 9.0988 6.5225 9.4694 6.3089C9.84 6.0954 10.2624 5.98848 10.69 5.99997C12.2 5.99997 13.34 7 13.34 9.13V13.34Z" fill="white"/>
</svg>
