<svg width="51" height="56" viewBox="0 0 51 56" fill="none" xmlns="http://www.w3.org/2000/svg">
<path d="M23.9688 0.0656261C20.4469 0.503126 17.5047 1.93594 15.0547 4.41875C12.8781 6.61719 11.6312 8.95781 10.9859 12.0312C10.7234 13.3219 10.7234 16.2094 10.9859 17.5C11.6312 20.5734 12.8891 22.925 15.0547 25.1125C17.2531 27.3328 19.6594 28.6344 22.7656 29.2797C24.0453 29.5422 26.9219 29.5422 28.2563 29.2797C31.2094 28.6891 33.6594 27.3766 35.8469 25.2109C38.0562 23.0344 39.3687 20.6062 40.0141 17.5C40.2766 16.2094 40.2766 13.3219 40.0141 12.0312C39.5875 10.0078 38.8109 8.1375 37.6953 6.45312C37.0063 5.41406 34.8734 3.27031 33.8562 2.60312C32.0953 1.43281 30.1922 0.634375 28.3219 0.273438C27.4359 0.0984383 24.7344 -0.0328121 23.9688 0.0656261ZM28.125 3.5875C30.2906 4.15625 32.1172 5.18438 33.6047 6.66094C35.0812 8.1375 36.0766 9.90938 36.6891 12.1406C37.0063 13.3328 37.0063 16.1984 36.6891 17.3906C36.0766 19.6219 35.0812 21.3938 33.6047 22.8703C32.1281 24.3469 30.3562 25.3422 28.125 25.9547C26.9328 26.2719 24.0672 26.2719 22.875 25.9547C20.6438 25.3422 18.8719 24.3469 17.3953 22.8703C13.1734 18.6375 12.9 11.9328 16.7719 7.32812C18.4453 5.3375 21.1906 3.79531 23.75 3.40156C24.8219 3.2375 27.1516 3.33594 28.125 3.5875Z" fill="#41332A"/>
<path d="M19.6266 32.9875C13.5016 33.7313 7.97816 37.1984 4.42348 42.5469C2.33441 45.675 1.14223 49.3719 0.934413 53.3203C0.868788 54.5344 0.879725 54.6766 1.09848 55.1031C1.2516 55.4094 1.47035 55.6281 1.76566 55.7812C2.19223 56 2.35629 56 25.5 56C48.6438 56 48.8079 56 49.2344 55.7812C49.5297 55.6281 49.7485 55.4094 49.9016 55.1031C50.1204 54.6766 50.1313 54.5344 50.0657 53.3203C49.7813 47.9281 47.725 43.2031 43.9844 39.3313C40.4407 35.6672 35.8688 33.4359 30.8704 32.9219C29.2188 32.7578 21.1469 32.8016 19.6266 32.9875ZM30.6954 36.2031C37.9469 37.0344 44.0282 42.1422 46.0516 49.1203C46.3797 50.225 46.7188 51.9422 46.7188 52.4562V52.7188H25.5H4.28129V52.4016C4.28129 51.8109 4.72973 49.7547 5.09066 48.6281C6.28285 44.9969 8.55785 41.8688 11.686 39.5391C12.8016 38.7078 15.2735 37.4391 16.6954 36.9797C17.7782 36.6187 19.0579 36.3453 20.2172 36.2141C21.3329 36.0828 29.5579 36.0828 30.6954 36.2031Z" fill="#41332A"/>
</svg>
