<svg width="57" height="56" viewBox="0 0 57 56" fill="none" xmlns="http://www.w3.org/2000/svg">
<g clip-path="url(#clip0_3_1048)">
<path d="M11.8204 0.240615C11.4048 0.360928 11.0329 0.48124 11.011 0.503116C10.9673 0.546865 12.7501 7.59062 12.8595 7.76562C12.9142 7.85312 13.1329 7.83124 13.6907 7.69999C14.1064 7.60155 14.4892 7.48124 14.5329 7.43749C14.6095 7.37187 13.1985 1.53124 12.7939 0.185928C12.7282 -0.0328221 12.7829 -0.0437593 11.8204 0.240615Z" fill="#41332A"/>
<path d="M39.35 0.393749C38.9672 0.65625 38.9016 0.864059 38.6172 2.84375C38.4641 3.87187 38.2891 4.8125 38.2344 4.93281C38.0375 5.29375 37.6219 5.49062 37.25 5.41406C36.9656 5.34843 36.6812 5.03125 35.6531 3.66406C34.3297 1.89219 34.0344 1.65156 33.4984 1.84843C33.3344 1.91406 32.5797 2.43906 31.8141 3.01875L30.4141 4.06875L29.4187 4.00312C26.5312 3.82812 23.3813 4.50625 20.6578 5.88437C18.9187 6.75937 17.5844 7.73281 16.1953 9.13281C13.2969 12.0312 11.6016 15.5203 11.0875 19.5891C10.9672 20.6172 10.9453 20.6719 10.6937 20.6719C10.5516 20.6719 10.3 20.8031 10.1359 20.9672C9.88437 21.2297 9.78594 21.5141 9.52344 22.8266C9.34844 23.6906 9.1625 24.3906 9.10781 24.3906C9.06406 24.3906 8.45156 23.9859 7.74062 23.4937C5.90312 22.2031 6.04531 22.1703 4 24.2375C2.61094 25.6266 2.35938 25.9328 2.35938 26.2062C2.35938 26.4469 2.63281 26.9281 3.28906 27.9016C3.80312 28.6453 4.21875 29.2797 4.21875 29.3125C4.21875 29.3453 3.51875 29.5203 2.66562 29.6953C1.34219 29.9578 1.05781 30.0562 0.80625 30.3078L0.5 30.6031V32.7578V34.9125L0.80625 35.2078C1.05781 35.4594 1.34219 35.5578 2.63281 35.8203C3.475 35.9953 4.18594 36.1484 4.20781 36.1703C4.24062 36.1922 3.825 36.8484 3.3 37.625C2.43594 38.8937 2.3375 39.0687 2.40312 39.3969C2.45781 39.6812 2.82969 40.1187 4.03281 41.3219C6.05625 43.3453 5.90312 43.3125 7.70781 42.0656C8.4625 41.5516 9.09688 41.125 9.14062 41.125C9.17344 41.125 9.34844 41.825 9.52344 42.6781C9.78594 44.0016 9.88437 44.2859 10.1359 44.5375L10.4312 44.8437H12.5859H14.7406L15.0359 44.5375C15.2875 44.2859 15.3859 44.0016 15.6484 42.6781C15.8234 41.825 15.9984 41.125 16.0312 41.125C16.075 41.125 16.7094 41.5516 17.4641 42.0656C19.1594 43.2359 19.2141 43.2359 20.3625 42.0984L21.15 41.3219L21.1938 43.05C21.2266 44.5375 21.2703 44.8656 21.4672 45.3031C21.7734 45.9812 22.1891 46.5062 22.6484 46.8234L23.0203 47.075L23.0531 50.0937L23.0859 53.1016L23.3922 53.7578C23.7859 54.6109 24.4312 55.2562 25.2625 55.6391C25.9187 55.9344 25.9734 55.9453 28.2266 55.9781C30.7203 56.0219 31.5625 55.9234 32.2734 55.5078C32.9297 55.125 33.5312 54.4797 33.8484 53.8125C34.1328 53.2109 34.1328 53.1891 34.1656 50.1484L34.2094 47.0859L34.6359 46.7797C34.8766 46.6156 35.2156 46.2437 35.4016 45.9594C35.9703 45.0625 36.0469 44.6031 36.0469 42.1094C36.0469 38.4891 36.375 37.7344 38.6063 36.1484C40.0719 35.1094 40.3563 34.8469 40.2469 34.65C40.1922 34.5625 39.9297 34.2344 39.6453 33.9391L39.1531 33.3812L38.7703 33.6984C38.5734 33.8734 37.9391 34.3437 37.3812 34.7484C35.7844 35.8859 34.9969 36.8922 34.4937 38.3906C34.2859 39.0141 34.2531 39.4406 34.1984 41.8469L34.1328 44.5922L33.8266 44.9859C33.2469 45.7406 33.3672 45.7297 28.5219 45.6969L24.1797 45.6641L23.8188 45.4125C23.1297 44.9094 23.0969 44.7562 23.0203 41.6719C22.9547 38.5437 22.8672 38.1391 22.0578 36.8922C21.5219 36.0719 21.0187 35.5797 19.75 34.6719C18.3937 33.6984 17.6938 33.0969 16.775 32.0797C14.8609 29.9687 13.5375 27.2562 12.9578 24.2266C12.7281 23.0562 12.7609 19.7641 13.0125 18.5937C14.0188 13.8906 16.7859 10.0734 20.8 7.85312C22.9 6.69375 25.0547 6.04844 27.5484 5.85156C28.3578 5.78593 28.3906 5.79688 28.3906 6.01562C28.3906 6.34375 28.5 6.52969 29.7687 8.225C30.9391 9.8 31.1031 10.1828 30.7641 10.6203C30.425 11.0578 30.2391 11.0687 28.1172 10.7625C25.8859 10.4453 25.5797 10.4672 25.3391 11.025C25.1422 11.4516 24.3984 16.8437 24.4859 17.1937C24.6172 17.6859 24.9781 17.8281 26.9141 18.1125C27.9094 18.2547 28.85 18.4078 29.0031 18.4406C29.5609 18.5828 29.7797 19.3922 29.3969 19.8625C29.2984 19.9937 28.5109 20.6172 27.6687 21.2516C26.1156 22.4109 25.9844 22.5531 25.9844 23.0234C25.9844 23.3187 29.4406 28.0219 29.8016 28.2078C30.2719 28.4594 30.5562 28.3391 32.1859 27.125C33.0719 26.4578 33.9141 25.8891 34.0453 25.8562C34.4062 25.7578 34.8766 25.9547 35.0625 26.2719C35.2047 26.5344 35.1937 26.7641 34.9641 28.4047C34.8328 29.4109 34.7344 30.4391 34.7562 30.6687C34.8109 31.3906 35.0187 31.4672 37.9172 31.8828C40.9578 32.3312 41.4281 32.3531 41.7344 32.0469C41.9969 31.7844 42.0078 31.7516 42.3359 29.4766C42.5766 27.7703 42.6203 27.5953 42.8828 27.3656C43.1672 27.125 43.5172 27.0594 43.8672 27.1906C43.9656 27.2344 44.5672 27.9562 45.2016 28.8094C45.8359 29.6516 46.4484 30.4391 46.5687 30.5375C47.0828 30.9859 47.3672 30.8547 49.9375 28.9297C52.3656 27.1031 52.65 26.8187 52.5187 26.3047C52.4859 26.1734 51.9281 25.3641 51.2719 24.4891C50.6156 23.6141 50.0469 22.8047 50.0031 22.6734C49.9047 22.3562 50.0906 21.9187 50.4297 21.7C50.7031 21.525 50.8234 21.525 52.7812 21.7984C54.9031 22.0937 55.1984 22.0937 55.5047 21.7219C55.6359 21.5687 56.4891 16.2531 56.5 15.5641C56.5 15.4328 56.3906 15.1922 56.2594 15.0391C56.0297 14.7766 55.8438 14.7328 53.8859 14.4484C52.5844 14.2516 51.7203 14.0766 51.6219 13.9781C51.3703 13.7266 51.2609 13.1797 51.4031 12.8953C51.4688 12.7531 52.1906 12.1297 53 11.5172C54.6406 10.2703 54.9688 9.95312 54.9688 9.57031C54.9688 9.39531 54.3781 8.50937 53.3172 7.0875C51.2281 4.2875 51.2062 4.26562 50.6922 4.26562C50.3422 4.26562 50.0469 4.44062 48.6578 5.46875C47.7719 6.13594 46.9297 6.70469 46.7984 6.7375C46.4266 6.83594 45.9562 6.55156 45.825 6.14687C45.7375 5.8625 45.7703 5.40312 45.9672 4.06875C46.2734 1.91406 46.2734 1.71719 45.9781 1.36719C45.7375 1.09375 45.5734 1.06094 42.7734 0.65625C41.1547 0.415623 39.7656 0.21875 39.7109 0.21875C39.6453 0.21875 39.4813 0.295311 39.35 0.393749ZM44.2172 2.77812C44.25 2.8 44.1844 3.37968 44.0859 4.06875C43.8234 5.82969 43.8453 6.40937 44.1844 7.07656C44.8516 8.41093 46.5141 8.99062 47.8047 8.34531C47.9797 8.24687 48.6688 7.7875 49.3141 7.29531C49.9594 6.81406 50.5062 6.44218 50.5281 6.46406C50.9656 7.02187 52.5844 9.22031 52.6172 9.32969C52.65 9.40625 52.2125 9.8 51.6219 10.2266C49.8937 11.4844 49.4781 12.0859 49.4781 13.2891C49.4672 14.4047 50.1234 15.3891 51.1187 15.8156C51.3375 15.9031 52.1797 16.0781 52.9891 16.1984C53.7984 16.3078 54.4766 16.4281 54.4984 16.4391C54.5094 16.4609 54.4 17.2594 54.2578 18.2109C54.1047 19.1734 53.9844 19.9937 53.9844 20.0266C53.9844 20.0594 53.3609 19.9937 52.5953 19.8844C51.8187 19.7641 50.9437 19.6984 50.6375 19.7203C48.9859 19.8844 47.8594 21.4156 48.1875 23.0453C48.2859 23.5266 48.5047 23.8875 49.2922 24.9484C49.8281 25.6594 50.2656 26.2719 50.2656 26.2937C50.2656 26.3156 49.6094 26.8297 48.8 27.4312L47.3344 28.5359L46.3609 27.2562C45.1141 25.6156 44.6875 25.3203 43.4953 25.3203C42.5 25.3312 41.9641 25.5609 41.3625 26.2719C40.8922 26.8187 40.7062 27.4094 40.5203 28.9516C40.4437 29.5641 40.3563 30.1219 40.3125 30.1984C40.2469 30.2859 39.7875 30.2641 38.4641 30.0781C36.4297 29.7828 36.6156 29.9797 36.8672 28.3281C37.1078 26.7312 37.0859 26.1625 36.725 25.4734C36.1781 24.4344 35.15 23.8656 34.0125 23.9859C33.2906 24.0625 32.9734 24.2266 31.5844 25.2766L30.4359 26.1406L29.3641 24.6969C28.7625 23.9094 28.2812 23.2203 28.2812 23.1875C28.2812 23.1437 28.8172 22.6953 29.4844 22.2031C30.1406 21.7 30.8078 21.1094 30.9609 20.8906C31.8797 19.5562 31.4859 17.7078 30.0969 16.8984C29.7359 16.6906 29.2437 16.5703 28.0516 16.3844C27.1875 16.2641 26.4656 16.1437 26.4438 16.1328C26.3891 16.0891 26.8813 12.6437 26.9578 12.5562C26.9906 12.5125 27.6906 12.5781 28.5 12.6984C30.4688 12.9828 31.1578 12.8516 31.9891 12.0203C32.4922 11.5172 32.6781 11.0797 32.7437 10.2703C32.8094 9.34062 32.6125 8.90312 31.5078 7.4375C31.0484 6.83594 30.6875 6.28906 30.7094 6.23438C30.7422 6.14687 33.4766 4.04688 33.575 4.04688C33.5969 4.04688 34.0344 4.61562 34.5594 5.30469C35.0734 5.99375 35.6859 6.68281 35.9156 6.825C37.075 7.57969 38.4422 7.41562 39.4594 6.39844C39.9516 5.89531 40.1375 5.37031 40.3672 3.71875C40.4656 3.02969 40.5641 2.40625 40.5859 2.34062C40.6078 2.25312 41.1656 2.29688 42.4016 2.48281C43.375 2.625 44.1953 2.75625 44.2172 2.77812ZM11.7 26.5672C11.7984 26.8953 11.875 27.1797 11.875 27.1906C11.875 27.2016 11.6125 27.2781 11.3062 27.3437C9.06406 27.8687 7.27031 29.9141 7.00781 32.2328C6.77812 34.1906 7.88281 36.4328 9.55625 37.45C12.2031 39.0578 15.4734 38.3687 17.1797 35.8422L17.5297 35.3172L17.8469 35.5797C18.0219 35.7109 18.4922 36.0609 18.8859 36.3453C19.75 36.9469 20.4062 37.6687 20.7344 38.3578L20.975 38.8609L19.9797 39.8562L18.9953 40.8406L17.8906 40.0969C17.2781 39.6812 16.6 39.2984 16.3703 39.2437C15.6047 39.0469 14.7406 39.4625 14.3469 40.2281C14.2703 40.3922 14.0844 41.0812 13.9422 41.7484L13.6906 42.9844H12.575H11.4703L11.2844 42.0547C10.8906 40.0641 10.5625 39.5281 9.57812 39.2656C8.94375 39.0906 8.51719 39.2547 7.25938 40.1078L6.17656 40.8406L5.34531 39.9984L4.50312 39.1672L5.24687 38.0734C5.65156 37.4719 6.03437 36.7937 6.07812 36.5641C6.29688 35.6453 5.70625 34.6828 4.75469 34.4094C4.45937 34.3219 3.79219 34.1578 3.28906 34.0594L2.35938 33.8734V32.7578V31.6422L3.58437 31.3906C4.2625 31.2594 4.95156 31.0844 5.10469 30.9969C5.81562 30.6359 6.25312 29.7062 6.08906 28.9734C6.03437 28.7547 5.67344 28.0875 5.26875 27.5078C4.875 26.9281 4.54688 26.4141 4.54688 26.3703C4.54688 26.3375 4.91875 25.9328 5.36719 25.4844L6.17656 24.675L7.325 25.4625C8.57187 26.3047 8.97656 26.4469 9.64375 26.2609C10.3766 26.0641 10.8797 25.4516 11.0547 24.5547C11.1422 24.1172 11.1422 24.1281 11.3281 25.0469C11.4375 25.5609 11.6016 26.2391 11.7 26.5672ZM12.925 29.6625C13.5594 30.9203 14.2703 31.9484 15.4734 33.3484L16.075 34.0375L15.8125 34.5297C15.4625 35.1969 14.6094 35.9297 13.8656 36.2031C13.3625 36.4 13.0781 36.4328 12.3672 36.4C10.9016 36.3234 9.87344 35.6125 9.22812 34.2562C8.92188 33.6109 8.9 33.5016 8.94375 32.6156C8.97656 31.9375 9.06406 31.5219 9.23906 31.1609C9.78594 30.0125 11.0656 29.1266 12.225 29.1047C12.6187 29.0937 12.6516 29.1266 12.925 29.6625ZM32.3281 48.5078V49.4375H28.6094H24.8906V48.5844C24.8906 48.1141 24.9234 47.6875 24.9672 47.6547C25 47.6109 26.6734 47.5781 28.6859 47.5781H32.3281V48.5078ZM32.3281 51.975C32.3281 52.8172 32.0437 53.4406 31.4859 53.8125C31.0922 54.0859 31.0375 54.0859 28.7297 54.1187C26.0719 54.1516 25.8969 54.1078 25.2953 53.3641C25.0547 53.0578 24.9672 52.8062 24.9234 52.3031C24.825 51.2094 24.4969 51.2969 28.6641 51.2969H32.3281V51.975Z" fill="#41332A"/>
<path d="M38.9345 9.02343C36.6704 9.51562 34.811 10.9812 33.8157 13.0375C33.236 14.2516 33.061 15.0281 33.061 16.3516C33.072 18.3422 33.7938 20.0594 35.2267 21.5031C35.9704 22.2469 36.2876 22.4766 37.1517 22.8922C38.497 23.5375 39.1313 23.6797 40.586 23.6687C41.5595 23.6578 41.9532 23.6031 42.6642 23.3734C44.6985 22.7062 46.2188 21.3719 47.1595 19.425C48.5485 16.5484 47.8157 12.9391 45.4204 10.7734C44.6001 10.0297 43.0798 9.24218 42.0079 9.02343C41.0673 8.82655 39.8313 8.82655 38.9345 9.02343ZM41.7673 10.8828C43.747 11.3969 45.322 12.9609 45.847 14.9297C46.3392 16.7344 45.7485 18.8125 44.3485 20.2125C42.161 22.4 38.7376 22.3781 36.5282 20.1797C34.3298 17.9812 34.3517 14.5469 36.572 12.3703C38.0157 10.9594 39.9407 10.4016 41.7673 10.8828Z" fill="#41332A"/>
<path d="M3.49697 5.85156C3.22353 6.24531 3.00478 6.58437 3.02666 6.60625C3.42041 6.9125 9.32666 11.0797 9.41416 11.1125C9.52353 11.1562 10.6282 9.75625 10.5407 9.67969C10.2892 9.46094 4.16416 5.14062 4.09853 5.14062C4.05478 5.14062 3.78134 5.45781 3.49697 5.85156Z" fill="#41332A"/>
<path d="M20.9751 11.1016C18.372 13.0047 16.5235 15.8703 15.8782 19.0312C14.861 24.0406 16.9173 29.2141 21.1173 32.2109C21.5985 32.5609 22.736 33.1953 23.6329 33.6328C25.1423 34.3656 25.3391 34.4969 26.0063 35.1969C26.8376 36.0828 27.3626 37.0781 27.5376 38.0953C27.7454 39.3969 27.6251 39.2656 28.6423 39.2656H29.5501L29.4735 38.5219C29.3641 37.5156 29.2766 37.1437 28.9376 36.3125C28.5548 35.3609 27.9751 34.4969 27.2095 33.7531C26.3673 32.9328 25.9735 32.6703 24.4641 31.9594C22.8235 31.1937 21.9266 30.6031 20.9204 29.6406C19.072 27.8906 17.8579 25.4406 17.5516 22.8594C17.1141 19.0094 18.7985 15.0391 21.861 12.7641C22.2657 12.4687 22.5938 12.1844 22.5938 12.1297C22.5938 12.0531 21.7188 10.6094 21.6751 10.6094C21.6641 10.6094 21.347 10.8281 20.9751 11.1016Z" fill="#41332A"/>
<path d="M5.12661 15.1266C3.19067 15.6187 1.58286 16.0562 1.53911 16.0891C1.47348 16.1656 1.80161 17.6094 1.92192 17.7516C1.97661 17.8172 8.5063 16.275 9.21723 16.0234C9.3813 15.9687 8.9438 14.2187 8.7688 14.2297C8.70317 14.2297 7.06254 14.6453 5.12661 15.1266Z" fill="#41332A"/>
<path d="M46.3281 35.6016V36.5312H49.5547H52.7813V35.6016V34.6719H49.5547H46.3281V35.6016Z" fill="#41332A"/>
<path d="M45.3436 40.2062C45.0265 40.6 44.8077 40.9609 44.8624 41.0047C44.9171 41.0484 46.164 42.0875 47.6296 43.3125L50.3093 45.5328L50.889 44.8875C51.2061 44.5375 51.4686 44.2094 51.4686 44.1656C51.4686 44.1 47.0827 40.3922 46.0983 39.6266C45.9561 39.5062 45.8358 39.5937 45.3436 40.2062Z" fill="#41332A"/>
<path d="M27.7344 42.4922V43.8594H28.6641H29.5938V42.4922V41.125H28.6641H27.7344V42.4922Z" fill="#41332A"/>
<path d="M40.75 45.2812V48.5625H41.6797H42.6094L42.5875 45.3031L42.5547 42.0547L41.6578 42.0219L40.75 41.9891V45.2812Z" fill="#41332A"/>
</g>
<defs>
<clipPath id="clip0_3_1048">
<rect width="56" height="56" fill="white" transform="translate(0.5)"/>
</clipPath>
</defs>
</svg>
