<svg width="49" height="56" viewBox="0 0 49 56" fill="none" xmlns="http://www.w3.org/2000/svg">
<path d="M23.6798 0.262501C23.0235 0.568752 22.4985 1.09375 22.247 1.69531C21.9954 2.28594 21.9298 3.95938 22.0829 5.76406C22.3016 8.4875 22.9579 9.48281 24.6204 9.60313C25.0688 9.63594 25.6485 9.54844 26.9173 9.23125C28.3391 8.87031 28.7876 8.80469 29.7501 8.80469C30.7782 8.80469 30.9641 8.8375 31.511 9.11094C33.1188 9.89844 34.0157 11.8344 33.5345 13.4969C33.2063 14.6234 32.5938 15.3453 31.4673 15.9469C30.9423 16.2203 30.8001 16.2422 29.6407 16.2422C28.5688 16.2422 28.186 16.1875 27.0704 15.8922C24.7954 15.2797 24.0188 15.3016 23.2313 15.9906C22.2907 16.8219 22.072 17.8281 22.0501 21.3281C22.0391 25.1562 21.9516 25.0469 25.1235 25.0469C27.4751 25.0469 28.9735 25.1891 29.5313 25.4625C29.8923 25.6375 29.9141 25.6922 29.947 26.2172C29.9688 26.5891 29.8813 27.1797 29.6954 27.8578C29.4548 28.7766 29.0938 30.5594 29.0938 30.8547C29.0938 30.9859 20.5298 30.975 19.272 30.8438C17.1938 30.625 17.1063 30.4719 17.6532 28.1641C17.872 27.2563 18.1016 26.1406 18.1673 25.6703C18.6376 22.1703 15.7938 19.0094 12.4141 19.2938C10.5438 19.4469 9.03446 20.3875 8.05008 22.0281C7.20789 23.4391 7.14227 25.1125 7.82039 27.8359C8.23602 29.5094 8.2907 30.0891 8.03914 30.3406C7.66727 30.7125 6.78133 30.8547 4.53914 30.9203C2.01258 30.9859 1.57508 31.1063 0.91883 31.8719C0.186017 32.725 0.207892 32.3094 0.240705 43.7063L0.273517 53.9766L0.590705 54.5562C1.19227 55.6391 1.95789 56 3.66414 56C5.00946 56 5.29383 55.8578 5.29383 55.1797C5.29383 54.5125 5.00946 54.3594 3.70789 54.3594C2.66883 54.3594 2.61414 54.3484 2.27508 54.0422L1.91414 53.725L1.88133 43.5969C1.85945 32.7359 1.83758 32.9984 2.38445 32.725C2.48289 32.6703 3.51102 32.5938 4.64852 32.5609C7.06571 32.4953 8.06102 32.3094 8.82664 31.7953C9.95321 31.0297 10.0954 30.0781 9.45008 27.6063C9.12195 26.3703 9.04539 25.8781 9.03446 24.9375C9.02352 23.9094 9.05633 23.7234 9.30789 23.1766C9.71258 22.3234 10.2923 21.7219 11.0907 21.3281C12.6985 20.5406 14.4157 20.8906 15.6188 22.2578C16.636 23.4172 16.8001 24.7625 16.1985 27.1797C15.5313 29.8375 15.5423 30.5156 16.1985 31.3141C16.9532 32.2219 17.9485 32.4734 21.197 32.5609L23.6251 32.6266V34.9344C23.6251 37.4609 23.4829 38.3906 23.0673 38.7406C22.7501 39.0141 22.586 38.9922 20.7704 38.5438C17.336 37.6797 15.422 37.975 13.7157 39.6156C11.5282 41.7156 11.4626 45.0078 13.5845 47.2063C15.247 48.9453 17.1938 49.2734 20.6501 48.3984C21.5141 48.1797 22.4001 48.0156 22.6079 48.0375C23.4391 48.1031 23.6251 48.8359 23.6251 52.0734V54.3594H15.9251C8.31258 54.3594 8.22508 54.3594 7.9407 54.5891C7.54695 54.8953 7.54695 55.4641 7.9407 55.7703L8.23602 56H27.3438C41.5407 56 46.5501 55.9672 46.8235 55.8688C47.4907 55.65 48.0704 55.1687 48.3985 54.5562L48.7266 53.9766L48.7595 43.7063C48.7923 32.375 48.8141 32.7359 48.1141 31.8938C47.9173 31.6641 47.5126 31.3578 47.2063 31.2156C46.6813 30.975 46.5282 30.9531 44.5157 30.9531C42.2516 30.9531 41.2782 31.0844 40.5016 31.4891L40.0641 31.7078L39.9985 30.7563C39.9548 30.2313 39.7579 29.1047 39.5391 28.2406C39.3313 27.3766 39.1563 26.4797 39.1563 26.25C39.1563 25.3203 39.7798 25.1453 43.3891 25.0797C46.4626 25.0141 46.6157 24.9813 46.9548 24.2484C47.1188 23.8984 47.1407 23.1109 47.1407 15.8156V7.75469L46.8673 7.49219C46.5391 7.15313 46.0251 7.13125 45.7188 7.4375C45.5001 7.65625 45.5001 7.79844 45.5001 15.5203V23.3734L43.072 23.4281C40.2829 23.4938 39.3532 23.6578 38.522 24.2047C37.4063 24.9594 37.2641 25.9438 37.9204 28.4703C38.2376 29.7172 38.3141 30.2313 38.3251 31.1172C38.336 32.0797 38.3032 32.2766 38.0516 32.8125C37.6251 33.7094 37.0673 34.2891 36.2251 34.6938C35.5688 35.0219 35.4048 35.0547 34.5626 35.0547C33.3704 35.0438 32.6376 34.7156 31.8391 33.8516C30.6798 32.5719 30.5266 31.2156 31.2157 28.5031C31.9048 25.8344 31.697 24.7188 30.3845 24.0516C29.5641 23.6359 28.6891 23.5047 26.1188 23.4391L23.6251 23.3734V21.8312C23.636 19.7531 23.7891 18.1234 24.0298 17.6313C24.347 16.975 24.5766 16.9641 26.5454 17.4453C29.5751 18.1891 31.2048 18.0906 32.7579 17.0844C33.1188 16.8547 33.6438 16.4172 33.9282 16.1109C35.4048 14.5141 35.7329 12.0531 34.7266 10.0625C34.2891 9.19844 33.2391 8.15937 32.3641 7.72187C30.8438 6.95625 29.3891 6.92344 26.7095 7.59063C25.8454 7.80938 24.9813 7.98438 24.7735 7.98438C24.0079 7.98438 23.7673 7.24063 23.6579 4.59375C23.5813 2.70156 23.6688 2.23125 24.1391 1.85938C24.4126 1.64062 24.5548 1.64062 34.5735 1.64062H44.7345L45.0845 1.95781C45.4345 2.275 45.4454 2.29688 45.5001 3.43438C45.5657 4.725 45.6751 4.95469 46.2766 4.95469C46.5282 4.95469 46.7032 4.86719 46.9001 4.64844C47.1516 4.34219 47.1626 4.27656 47.1188 3.18281C47.0641 1.87031 46.8782 1.37812 46.2001 0.721874C45.4235 -0.0328102 45.9376 0 34.5188 0H24.2266L23.6798 0.262501ZM29.5095 33.1953C29.7938 33.9172 30.286 34.6609 30.8438 35.2078L31.2595 35.6016L31.0407 36.5312C30.7673 37.7672 30.7454 39.3422 30.997 40.1953C32.211 44.2859 37.2095 45.5437 40.1407 42.4812C41.7376 40.8188 42.011 39.0141 41.1798 35.6781C40.7313 33.8625 40.6985 33.3703 41.0157 33.0859C41.3876 32.7469 42.4704 32.5938 44.5157 32.5938C46.6048 32.5938 46.7798 32.6375 47.0204 33.2172C47.1079 33.4469 47.1407 36.1812 47.1188 43.6188L47.086 53.725L46.7251 54.0422L46.3751 54.3594H35.8751H25.3751V53.0688C25.3641 51.1766 25.1891 49.0219 24.9923 48.3547C24.7188 47.4797 24.336 46.9656 23.7016 46.6484C22.936 46.2766 22.3454 46.2984 20.4423 46.7797C19.1188 47.1188 18.6704 47.1844 17.6641 47.1844C16.647 47.1953 16.3845 47.1625 15.947 46.9547C15.2251 46.6266 14.4266 45.8391 14.0548 45.0953C13.7704 44.5375 13.7376 44.3406 13.7266 43.4766C13.7266 42.6125 13.7704 42.4156 14.0329 41.8688C14.4266 41.0594 15.3345 40.2281 16.1548 39.9219C17.2266 39.5281 18.2657 39.5938 20.6173 40.2172C21.9079 40.5563 23.1657 40.6109 23.6798 40.3375C24.0954 40.1188 24.5329 39.6484 24.7735 39.1781C25.1016 38.5109 25.2548 37.3734 25.3313 34.9672L25.4079 32.5938H27.3438H29.2798L29.5095 33.1953ZM39.5829 35.9625C39.8891 37.1875 39.9657 37.6688 39.9657 38.6094C39.9766 39.6484 39.9438 39.8125 39.6704 40.3703C39.3204 41.1031 38.4782 41.9234 37.7563 42.2516C36.9688 42.6234 35.4923 42.5906 34.6501 42.1969C33.8516 41.825 33.1954 41.1359 32.7798 40.2609C32.4954 39.6703 32.4407 39.4188 32.4407 38.7297C32.4407 37.7016 32.6813 36.3891 32.8563 36.4547C33.3485 36.6516 34.3876 36.7719 35.022 36.7063C36.422 36.575 37.7126 35.9297 38.6204 34.9016C38.8829 34.6063 39.1235 34.3875 39.1454 34.4094C39.1782 34.4312 39.3641 35.1313 39.5829 35.9625Z" fill="#41332A"/>
<path d="M30.1875 47.25C30.0016 47.4359 29.9688 47.6109 29.9688 48.3219C29.9688 49.3172 30.1109 49.5469 30.7562 49.5469C31.3687 49.5469 31.5547 49.2516 31.5547 48.2672C31.5547 47.5344 31.5219 47.425 31.2922 47.2391C30.9641 46.9656 30.4609 46.9766 30.1875 47.25Z" fill="#41332A"/>
<path d="M41.125 47.25C40.95 47.425 40.9062 47.6109 40.9062 48.2891C40.9062 49.2516 41.0922 49.5469 41.7156 49.5469C42.2844 49.5469 42.5469 49.1531 42.5469 48.2891C42.5469 47.7641 42.4922 47.5453 42.3172 47.3156C42.0328 46.9547 41.4531 46.9219 41.125 47.25Z" fill="#41332A"/>
<path d="M34.3111 48.1469C33.7752 48.5625 33.9392 49.3062 34.6611 49.8094C35.5033 50.4 36.4986 50.4766 37.3845 50.0281C38.0408 49.7 38.5002 49.2078 38.5002 48.825C38.5002 48.2234 37.5377 47.7531 37.1767 48.1906C36.9798 48.4312 36.4767 48.6719 36.1705 48.6719C36.0283 48.6719 35.722 48.5187 35.4923 48.3437C35.0548 47.9937 34.6173 47.9281 34.3111 48.1469Z" fill="#41332A"/>
<path d="M11.539 1.90312C10.4125 2.43906 9.95311 3.27031 9.86561 4.99844L9.81092 6.125H8.70623C7.77655 6.125 7.51405 6.16875 7.05467 6.3875C6.38748 6.70469 5.99373 7.10937 5.68748 7.80937C5.16248 8.97969 5.53436 10.4562 6.54061 11.2328C7.15311 11.6922 7.60155 11.8125 8.81561 11.8125H9.81092L9.87655 12.95C9.96405 14.5687 10.3469 15.3562 11.3312 15.925C12.7531 16.7562 14.6672 16.1328 15.3781 14.6016C15.5969 14.1422 15.6406 13.8797 15.6406 12.9281V11.8125H16.7672C17.7078 11.8125 17.9703 11.7687 18.4297 11.55C20.2562 10.7078 20.6937 8.33437 19.2828 6.93437C18.6484 6.3 18.3312 6.19062 16.9531 6.125L15.6953 6.07031L15.6406 4.86719C15.575 3.52187 15.4109 3.0625 14.7875 2.42812C13.9562 1.60781 12.6219 1.38906 11.539 1.90312ZM13.6281 3.65312L14 4.025V5.55625C14 7.02187 14.0109 7.10937 14.2625 7.40469C14.525 7.71094 14.5359 7.71094 16.1875 7.76562L17.85 7.82031L18.1672 8.18125C18.6375 8.69531 18.6156 9.29687 18.1125 9.8L17.7406 10.1719H16.2531C14.6672 10.1719 14.3172 10.2594 14.1203 10.6859C14.0547 10.8391 14 11.5719 14 12.425V13.9125L13.6281 14.2844C13.2015 14.7109 12.6547 14.7766 12.1515 14.4812C11.6047 14.1641 11.55 13.9562 11.5062 12.2172C11.4515 10.1062 11.5062 10.1719 9.41717 10.1719C8.19217 10.1719 7.87498 10.1391 7.65623 9.98594C7.21873 9.67969 7.1203 9.49375 7.10936 8.94687C7.10936 8.56406 7.17498 8.35625 7.37186 8.12656C7.63436 7.82031 7.63436 7.82031 9.32967 7.76562C11.5609 7.68906 11.4844 7.75469 11.4844 5.97187C11.4844 5.23906 11.539 4.45156 11.5937 4.21094C11.7359 3.59844 12.1297 3.28125 12.764 3.28125C13.1797 3.28125 13.3109 3.33594 13.6281 3.65312Z" fill="#41332A"/>
</svg>
